<svg width="22" height="22" viewBox="0 0 22 22" fill="none" xmlns="http://www.w3.org/2000/svg">
<path d="M2.35693 7.95447L10.7279 12.3081C10.8119 12.3518 10.9052 12.3746 10.9998 12.3746C11.0944 12.3746 11.1877 12.3518 11.2716 12.3081L19.6426 7.95525V15.5178C19.6427 16.17 19.3931 16.7975 18.9452 17.2717C18.4972 17.7458 17.8849 18.0305 17.2336 18.0674L17.0891 18.0713H4.91051C4.25825 18.0714 3.63071 17.8218 3.15661 17.3739C2.68251 16.9259 2.39779 16.3135 2.36086 15.6623L2.35693 15.5178V7.95447ZM4.91051 3.92847H17.0891C17.7413 3.92842 18.3689 4.17797 18.843 4.62592C19.3171 5.07387 19.6018 5.68626 19.6387 6.33747L19.6426 6.48204V6.62661L10.9998 11.1209L2.35693 6.62661V6.48204C2.35689 5.82979 2.60644 5.20224 3.05439 4.72814C3.50234 4.25404 4.11473 3.96932 4.76593 3.9324L4.91051 3.92847H17.0891H4.91051Z" fill="#DA1F39"/>
</svg>
