<svg width="22" height="22" viewBox="0 0 22 22" fill="none" xmlns="http://www.w3.org/2000/svg">
<path d="M17.4638 12.0937H8.71716C9.34186 11.8098 10.0187 11.5961 10.7175 11.3783C11.9819 10.9843 13.2831 10.5761 14.3415 9.68637H17.4638C17.7169 9.68637 17.9221 9.48119 17.9221 9.22804C17.9221 8.97488 17.7169 8.7697 17.4638 8.7697H15.1651C15.7078 7.91968 15.8418 6.87715 15.5134 5.8131C15.0278 4.23972 13.6392 2.92452 12.1364 2.61479C10.7411 2.3269 9.1855 2.64129 7.977 3.45519C6.91997 4.16703 6.2194 5.20186 6.00402 6.36954C5.95819 6.6184 6.12272 6.85759 6.37176 6.90343C6.62026 6.94783 6.85964 6.7849 6.90565 6.53569C7.07573 5.61257 7.63809 4.78865 8.48905 4.21573C9.49738 3.53647 10.7906 3.27221 11.9516 3.51284C13.1415 3.75776 14.2461 4.81515 14.6375 6.08344C14.8144 6.65636 14.9773 7.75528 14.0832 8.67911C14.0518 8.71161 14.0169 8.73846 13.9847 8.7697H4.53646C4.2833 8.7697 4.07812 8.97488 4.07812 9.22804C4.07812 9.48119 4.2833 9.68637 4.53646 9.68637H12.6537C11.9731 10.0221 11.2225 10.2607 10.4448 10.5031C9.23024 10.8818 7.98018 11.274 6.94047 12.0937H4.53646C4.2833 12.0937 4.07812 12.2989 4.07812 12.552C4.07812 12.8052 4.2833 13.0104 4.53646 13.0104H6.07452C5.34521 14.1401 5.32511 15.7017 6.0853 17.0509C7.06911 18.7965 8.97961 19.4879 10.8129 19.4879C11.4503 19.4879 12.0784 19.4045 12.6549 19.2526C15.0697 18.6163 16.5672 16.9252 16.5632 14.8394C16.5629 14.5862 16.3577 14.3818 16.1049 14.3818C16.1045 14.3818 16.1042 14.3818 16.1042 14.3818C15.851 14.3821 15.6462 14.588 15.6466 14.8408C15.6505 16.8127 13.983 17.9546 12.4214 18.3661C10.4556 18.8835 7.9224 18.4438 6.88381 16.6011C6.31519 15.5917 6.16641 14.0627 7.18369 13.0916C7.21415 13.0626 7.24752 13.0384 7.2786 13.0104H17.4638C17.7169 13.0104 17.9221 12.8052 17.9221 12.552C17.9221 12.2989 17.7169 12.0937 17.4638 12.0937Z" fill="#1D1C1A" stroke="black" stroke-width="0.7"/>
</svg>
