<svg width="21" height="13" viewBox="0 0 21 13" fill="none" xmlns="http://www.w3.org/2000/svg">
<path d="M0.424 12V0.639999H5.224C5.71467 0.639999 6.16267 0.741333 6.568 0.943999C6.984 1.14667 7.34133 1.424 7.64 1.776C7.93867 2.11733 8.168 2.50133 8.328 2.928C8.49867 3.344 8.584 3.77067 8.584 4.208C8.584 4.76267 8.47733 5.28 8.264 5.76C8.06133 6.24 7.768 6.64533 7.384 6.976C7 7.30667 6.55733 7.52 6.056 7.616L8.84 12H7.576L4.904 7.808H1.544V12H0.424ZM1.544 6.816H5.256C5.704 6.816 6.09333 6.69333 6.424 6.448C6.75467 6.192 7.01067 5.86667 7.192 5.472C7.37333 5.07733 7.464 4.656 7.464 4.208C7.464 3.74933 7.35733 3.328 7.144 2.944C6.94133 2.54933 6.664 2.23467 6.312 2C5.96 1.75467 5.576 1.632 5.16 1.632H1.544V6.816ZM15.5011 12.08C14.6051 12.08 13.8478 11.92 13.2291 11.6C12.6211 11.28 12.1305 10.848 11.7571 10.304C11.3838 9.76 11.1171 9.152 10.9571 8.48C10.7971 7.79733 10.7171 7.09333 10.7171 6.368V0.639999H11.8211V6.368C11.8211 6.96533 11.8798 7.54667 11.9971 8.112C12.1251 8.66667 12.3278 9.168 12.6051 9.616C12.8825 10.064 13.2558 10.4213 13.7251 10.688C14.1945 10.944 14.7811 11.072 15.4851 11.072C16.2105 11.072 16.8078 10.9387 17.2771 10.672C17.7571 10.4053 18.1358 10.048 18.4131 9.6C18.6905 9.14133 18.8825 8.63467 18.9891 8.08C19.1065 7.51467 19.1651 6.944 19.1651 6.368V0.639999H20.2851V6.368C20.2851 7.12533 20.1998 7.85067 20.0291 8.544C19.8585 9.22667 19.5811 9.83467 19.1971 10.368C18.8238 10.9013 18.3331 11.3227 17.7251 11.632C17.1171 11.9307 16.3758 12.08 15.5011 12.08Z" fill="black"/>
</svg>
