<svg width="22" height="13" viewBox="0 0 22 13" fill="none" xmlns="http://www.w3.org/2000/svg">
<path d="M5 12.08C4.09333 12.08 3.32 11.9307 2.68 11.632C2.05067 11.3227 1.53867 10.9013 1.144 10.368C0.76 9.83467 0.477333 9.232 0.296 8.56C0.114667 7.87733 0.024 7.168 0.024 6.432V0.639999H2.232V6.432C2.232 7.06133 2.31733 7.65867 2.488 8.224C2.65867 8.78933 2.94667 9.248 3.352 9.6C3.75733 9.952 4.30133 10.128 4.984 10.128C5.688 10.128 6.24267 9.952 6.648 9.6C7.05333 9.23733 7.34133 8.77333 7.512 8.208C7.68267 7.64267 7.768 7.05067 7.768 6.432V0.639999H9.96V6.432C9.96 7.21067 9.864 7.94133 9.672 8.624C9.49067 9.30667 9.19733 9.90933 8.792 10.432C8.39733 10.944 7.88533 11.3493 7.256 11.648C6.62667 11.936 5.87467 12.08 5 12.08ZM14.8189 0.639999H17.0589L21.2349 12H18.9629L17.9069 9.168H13.9389L12.8989 12H10.6269L14.8189 0.639999ZM17.5069 7.616L15.9389 2.928L14.3069 7.616H17.5069Z" fill="black"/>
</svg>
